<?xml version="1.0" standalone="no"?>
<!DOCTYPE svg PUBLIC "-//W3C//DTD SVG 20010904//EN"
 "http://www.w3.org/TR/2001/REC-SVG-20010904/DTD/svg10.dtd">
<svg version="1.0" xmlns="http://www.w3.org/2000/svg"
 width="91.000000pt" height="91.000000pt" viewBox="0 0 91.000000 91.000000"
 preserveAspectRatio="xMidYMid meet">
<metadata>
Created by potrace 1.14, written by Peter Selinger 2001-2017
</metadata>
<g transform="translate(0.000000,91.000000) scale(0.100000,-0.100000)"
fill="#000000" stroke="none">
<path d="M118 798 c-22 -16 -22 -20 -23 -267 l-1 -251 357 0 357 0 0 228 c1
125 -1 239 -4 255 -10 49 -25 51 -357 52 -272 0 -310 -2 -329 -17z m593 -77
c3 0 6 -80 6 -176 l1 -175 -268 0 -267 0 0 173 c0 94 1 174 3 177 2 4 505 5
525 1z"/>
<path d="M315 600 l-49 -49 20 -22 c61 -70 86 -88 105 -78 26 14 24 38 -8 71
l-26 27 26 27 c30 29 33 44 15 62 -20 20 -31 14 -83 -38z"/>
<path d="M502 638 c-18 -18 -15 -30 14 -61 l26 -29 -28 -29 c-24 -26 -26 -31
-15 -52 18 -33 35 -30 79 17 60 64 59 63 6 117 -51 51 -62 57 -82 37z"/>
<path d="M10 225 c-4 -5 -6 -19 -4 -29 15 -95 9 -94 439 -95 376 -1 416 3 436
42 16 29 19 76 5 84 -6 4 -87 8 -179 8 -161 0 -168 -1 -182 -21 -11 -18 -24
-22 -67 -22 -68 0 -86 5 -92 26 -5 15 -25 17 -177 17 -102 0 -174 -4 -179 -10z"/>
</g>
</svg>
